<svg height="512pt" viewBox="0 -17 512 512" width="512pt" xmlns="http://www.w3.org/2000/svg"><path d="m503.464844 221.867188h-494.929688c-4.710937 0-8.535156-3.816407-8.535156-8.535157v-34.132812c0-4.71875 3.824219-8.53125 8.535156-8.53125h494.929688c4.710937 0 8.535156 3.8125 8.535156 8.53125v34.132812c0 4.71875-3.824219 8.535157-8.535156 8.535157zm-486.398438-17.066407h477.867188v-17.066406h-477.867188zm0 0"/><path d="m486.398438 409.601562h-68.265626c-4.710937 0-8.53125-3.816406-8.53125-8.535156v-187.734375c0-4.71875 3.820313-8.53125 8.53125-8.53125h68.265626c4.710937 0 8.535156 3.8125 8.535156 8.53125v187.734375c0 4.71875-3.824219 8.535156-8.535156 8.535156zm-59.730469-17.066406h51.199219v-170.667968h-51.199219zm0 0"/><path d="m469.332031 443.734375h-34.132812c-4.710938 0-8.53125-3.816406-8.53125-8.535156v-34.132813c0-4.71875 3.820312-8.53125 8.53125-8.53125h34.132812c4.710938 0 8.535157 3.8125 8.535157 8.53125v34.132813c0 4.71875-3.824219 8.535156-8.535157 8.535156zm-25.597656-17.066406h17.066406v-17.066407h-17.066406zm0 0"/><path d="m452.265625 477.867188c-4.710937 0-8.53125-3.816407-8.53125-8.535157v-34.132812c0-4.71875 3.820313-8.53125 8.53125-8.53125s8.535156 3.8125 8.535156 8.53125v34.132812c0 4.71875-3.824219 8.535157-8.535156 8.535157zm0 0"/><path d="m469.332031 477.867188h-34.132812c-4.710938 0-8.53125-3.816407-8.53125-8.535157s3.820312-8.53125 8.53125-8.53125h34.132812c4.710938 0 8.535157 3.8125 8.535157 8.53125s-3.824219 8.535157-8.535157 8.535157zm0 0"/><path d="m93.867188 409.601562h-68.265626c-4.710937 0-8.535156-3.816406-8.535156-8.535156v-187.734375c0-4.71875 3.824219-8.53125 8.535156-8.53125h68.265626c4.710937 0 8.53125 3.8125 8.53125 8.53125v187.734375c0 4.71875-3.820313 8.535156-8.53125 8.535156zm-59.734376-17.066406h51.199219v-170.667968h-51.199219zm0 0"/><path d="m76.800781 443.734375h-34.132812c-4.710938 0-8.535157-3.816406-8.535157-8.535156v-34.132813c0-4.71875 3.824219-8.53125 8.535157-8.53125h34.132812c4.710938 0 8.53125 3.8125 8.53125 8.53125v34.132813c0 4.71875-3.820312 8.535156-8.53125 8.535156zm-25.601562-17.066406h17.066406v-17.066407h-17.066406zm0 0"/><path d="m59.734375 477.867188c-4.710937 0-8.535156-3.816407-8.535156-8.535157v-34.132812c0-4.71875 3.824219-8.53125 8.535156-8.53125s8.53125 3.8125 8.53125 8.53125v34.132812c0 4.71875-3.820313 8.535157-8.53125 8.535157zm0 0"/><path d="m76.800781 477.867188h-34.132812c-4.710938 0-8.535157-3.816407-8.535157-8.535157s3.824219-8.53125 8.535157-8.53125h34.132812c4.710938 0 8.53125 3.8125 8.53125 8.53125s-3.820312 8.535157-8.53125 8.535157zm0 0"/><path d="m418.132812 307.199219h-324.265624c-4.710938 0-8.535157-3.8125-8.535157-8.53125v-85.335938c0-4.71875 3.824219-8.53125 8.535157-8.53125h324.265624c4.710938 0 8.535157 3.8125 8.535157 8.53125v85.335938c0 4.71875-3.824219 8.53125-8.535157 8.53125zm-315.734374-17.066407h307.203124v-68.265624h-307.203124zm0 0"/><path d="m290.132812 187.734375h-68.265624c-14.113282 0-25.601563-11.488281-25.601563-25.601563 0-14.113281 11.488281-25.597656 25.601563-25.597656h68.265624c14.113282 0 25.601563 11.484375 25.601563 25.597656 0 14.113282-11.488281 25.601563-25.601563 25.601563zm-68.265624-34.132813c-4.703126 0-8.535157 3.820313-8.535157 8.53125 0 4.710938 3.832031 8.535157 8.535157 8.535157h68.265624c4.703126 0 8.535157-3.824219 8.535157-8.535157 0-4.710937-3.832031-8.53125-8.535157-8.53125zm0 0"/><path d="m256 153.601562c-4.710938 0-8.535156-3.816406-8.535156-8.535156v-34.132812c0-4.71875 3.824218-8.535156 8.535156-8.535156s8.535156 3.816406 8.535156 8.535156v34.132812c0 4.71875-3.824218 8.535156-8.535156 8.535156zm0 0"/><path d="m341.332031 119.464844h-170.664062c-4.710938 0-8.535157-3.8125-8.535157-8.53125v-102.398438c0-4.722656 3.824219-8.535156 8.535157-8.535156h170.664062c4.710938 0 8.535157 3.8125 8.535157 8.535156v102.398438c0 4.71875-3.824219 8.53125-8.535157 8.53125zm-162.132812-17.066406h153.601562v-85.332032h-153.601562zm0 0"/><path d="m452.265625 187.734375h-51.199219c-4.710937 0-8.53125-3.816406-8.53125-8.535156v-68.265625c0-4.71875 3.820313-8.535156 8.53125-8.535156h51.199219c4.710937 0 8.535156 3.816406 8.535156 8.535156v68.265625c0 4.71875-3.824219 8.535156-8.535156 8.535156zm-42.664063-17.066406h34.132813v-51.203125h-34.132813zm0 0"/><path d="m102.398438 187.734375h-51.199219c-4.710938 0-8.53125-3.816406-8.53125-8.535156v-68.265625c0-4.71875 3.820312-8.535156 8.53125-8.535156h51.199219c4.710937 0 8.535156 3.816406 8.535156 8.535156v68.265625c0 4.71875-3.824219 8.535156-8.535156 8.535156zm-42.664063-17.066406h34.132813v-51.203125h-34.132813zm0 0"/><path d="m469.332031 153.601562h-17.066406c-4.710937 0-8.53125-3.816406-8.53125-8.535156v-34.132812c0-4.71875 3.820313-8.535156 8.53125-8.535156h17.066406c14.117188 0 25.601563 11.488281 25.601563 25.601562s-11.484375 25.601562-25.601563 25.601562zm-8.53125-17.066406h8.53125c4.703125 0 8.535157-3.824218 8.535157-8.535156s-3.832032-8.535156-8.535157-8.535156h-8.53125zm0 0"/><path d="m76.800781 119.464844c-4.710937 0-8.535156-3.8125-8.535156-8.53125v-59.734375c0-4.71875 3.824219-8.53125 8.535156-8.53125 4.710938 0 8.53125 3.8125 8.53125 8.53125v59.734375c0 4.71875-3.820312 8.53125-8.53125 8.53125zm0 0"/><path d="m85.324219 119.464844c-1.28125 0-2.585938-.289063-3.804688-.894532-4.214843-2.105468-5.921875-7.234374-3.816406-11.453124l25.601563-51.199219c2.109374-4.207031 7.21875-5.914063 11.453124-3.8125 4.214844 2.105469 5.921876 7.234375 3.8125 11.449219l-25.601562 51.203124c-1.5 2.984376-4.511719 4.707032-7.644531 4.707032zm0 0"/><path d="m68.273438 119.464844c-3.128907 0-6.140626-1.722656-7.644532-4.71875l-25.597656-51.199219c-2.109375-4.214844-.394531-9.335937 3.820312-11.449219 4.226563-2.101562 9.34375-.386718 11.453126 3.820313l25.597656 51.199219c2.109375 4.21875.402344 9.347656-3.8125 11.453124-1.230469.605469-2.535156.894532-3.816406.894532zm0 0"/><path d="m341.332031 119.464844h-170.664062c-4.710938 0-8.535157-3.8125-8.535157-8.53125v-34.132813c0-4.71875 3.824219-8.535156 8.535157-8.535156h170.664062c4.710938 0 8.535157 3.816406 8.535157 8.535156v34.132813c0 4.71875-3.824219 8.53125-8.535157 8.53125zm-162.132812-17.066406h153.601562v-17.066407h-153.601562zm0 0"/><path d="m213.332031 477.867188h-85.332031c-4.710938 0-8.535156-3.816407-8.535156-8.535157v-119.464843c0-4.71875 3.824218-8.535157 8.535156-8.535157h85.332031c4.710938 0 8.535157 3.816407 8.535157 8.535157v119.464843c0 4.71875-3.824219 8.535157-8.535157 8.535157zm-76.796875-17.066407h68.265625v-102.402343h-68.265625zm0 0"/><path d="m213.332031 392.535156h-85.332031c-4.710938 0-8.535156-3.816406-8.535156-8.535156v-34.132812c0-4.71875 3.824218-8.535157 8.535156-8.535157h85.332031c4.710938 0 8.535157 3.816407 8.535157 8.535157v34.132812c0 4.71875-3.824219 8.535156-8.535157 8.535156zm-76.796875-17.070312h68.265625v-17.066406h-68.265625zm0 0"/></svg>